<?xml version="1.0" encoding="UTF-8"?> <svg xmlns="http://www.w3.org/2000/svg" xmlns:xlink="http://www.w3.org/1999/xlink" version="1.1" id="Layer_1" x="0px" y="0px" viewBox="285 400 2985 2800" style="enable-background:new 0 0 3600 3600;fill:black;color-scheme:only light;" xml:space="preserve"> <g> <path d="M1693.3,1777.3c-6.5,22.9-17.7,39.7-36.1,52c-14.6,9.7-28.2,20.7-41.9,31.6c-26.2,20.7-34,49.4-33,81 c0.6,16.3,3.4,32.5,5.2,48.8c0.3,2.5,0.3,5,0.7,11.1c-20.9-22.3-42.5-37-71.5-31.9c-30.9,5.5-40.5,30.8-49.8,57.4 c-9.7-3.8-19.2-7.7-28.7-11.4c-22.7-8.8-76,6.5-83.8,32.5c-6,19.8,0.2,31.5,21.2,31.2c4.9-0.1,9.8,0,17.5,0 c-3.9,5.3-6.3,9.4-9.5,12.7c-28.7,30.8-63.7,52.6-102.4,67.7c-32.4,12.7-65.7,24-99.6,31.8c-43.8,10.1-88.5,11.4-136.2,0.2 c4.8-2.6,6.9-4.3,9.4-5c40.4-12.2,81.3-23,118.7-43.6c46.3-25.5,90.2-54,126.6-92.6c18.8-20,40-38.5,51.5-64.4 c8.3-18.7,12.7-37.9,9.4-58.8c-4-25.4-19.6-37.5-47.8-37.7c-28.3-0.2-52.2,10.8-71.5,31.4c-7.6,8.1-14.1,17.1-7.4,29.1 c3.7,6.6,19.9,11.8,30.4,9.9c4.6-0.8,9.2-1.7,13.8-2.4c1-0.1,2.1,0.7,5.9,4.1c-2.3,1-4.9,1.7-7,3c-58.4,37.8-120.1,68.5-187.4,86.7 c-48.4,13.1-97.4,23.8-147.8,25.4c-58.4,1.8-116.8,4.1-175.1,2.8c-39.1-0.9-78.1-7.5-117.2-11.8c-29.7-3.3-59.5-6.9-89.2-10.6 c-10.4-1.3-20.7-3.5-31.1-7.5c4.7-0.3,9.3-0.4,14-0.8c51.5-4.2,103.2-7.1,154.5-13.1c42-4.9,83.9-12.1,125.2-21 c42-9,83.5-20.5,124.9-32.4c38.7-11.1,77.7-22.3,115.2-37c39.7-15.5,78.1-34.6,116.4-53.4c32.2-15.8,63.3-34,87.3-61.4 c11.1-12.7,20.9-27.2,28.6-42.2c8-15.7,2.7-30.3-11.6-41c-38-28.3-80.1-33.7-125-21.5c-12.1,3.3-22.6,15-21.8,24.7 c1,12.6,7.8,21.7,20,26.2c13,4.9,26.1,9.6,39.2,14.5c2.6,1,5,2.4,8.8,4.3c-2.8,1.4-3.7,2.3-4.6,2.3c-41.2-1-82.5-1.1-123.6-3.6 c-30.6-1.9-61.1-6.1-91.4-10.8c-30.6-4.8-61.4-9.9-91.4-17.8c-40.1-10.6-79.8-23-119.1-36.3c-56.4-19.1-110.7-43.1-161.7-74 c-42.2-25.6-85-50.4-125.9-77.9c-28-18.8-53.9-41-79.4-63.2c-61.3-53.2-114-113.9-153.7-185c-14.3-25.6-25.8-52.8-38.5-79.3 c1.1-0.8,2.2-1.5,3.3-2.3c12.3,13.5,25.1,26.6,36.7,40.6c43.3,52.5,94.2,96,153.1,130.1c52.5,30.4,104,62.4,157.3,91.2 c51.9,28.1,107,49.3,163.3,67.5c44.9,14.6,89.1,31.6,134.2,45.6c30.3,9.4,61.4,17.1,92.6,22.6c43.6,7.6,87.5,14.1,131.6,17.8 c34.1,2.9,68.8,3.1,102.8,0.2c37.5-3.2,74.7-10.8,106.4-33.9c21.9-16,37.3-36.9,40.9-64.1c3-23.2-5.3-44.7-16.6-64.4 c-21.6-37.9-54.4-62.3-95.5-75.9c-19.8-6.5-56.7,5.2-69.1,21.6c-11,14.5-10.3,32.5,3.5,45.4c27.8,26.1,56.3,51.4,90.5,69.2 c2.5,1.3,4.6,3.3,6.1,7.7c-5.5-0.3-11.2,0.3-16.6-0.9c-43.6-9.3-87.7-16.7-130.4-29.1c-42-12.3-82.5-29.6-123.5-45.1 c-85.8-32.4-161.7-82.9-239.1-130.6c-97.2-60-183.4-134-267.5-210.7c-76.5-69.8-145.3-146.4-208.5-228.3 c-61.8-80.1-113.6-166.2-154-259C97.4,619.8,82.4,572.6,71.8,524c-0.4-1.7,0.2-3.6,0.6-8.2c3.1,4.4,4.9,6.7,6.3,9.1 c38.9,65.7,80.8,129.3,130.8,187.4c48.3,56.3,103.1,105.8,158.2,155.2c95.4,85.4,197.9,161.3,306.8,228.4 c91.7,56.5,185.2,109.6,283.6,153.9c82.2,37.1,165.3,71.4,251.6,97.7c46,14,91.6,28.9,137.8,42.3c42.4,12.3,85.5,19.6,130,11.8 c36.7-6.5,73.7-6,110.4-0.3c18.5,2.9,36.7,7.5,55,11.4c0.1,1.2,0.3,2.3,0.4,3.5c-17.8,7.1-35.3,14.9-53.4,21.1 c-50.4,17.2-93.7,45-130,83.8c-27.9,29.8-51.4,62.4-65.7,101c-17.4,47-21.3,95-7.1,142.9c10.1,34,29.8,63,68,69.7 c29.4,5.1,58.3,0.2,83.8-17c13.2-8.9,26.3-18.1,39-27.7c11.9-8.9,24.5-14,39.9-13.4c21,0.9,42.1,0.2,63.1,0.2 C1684.6,1776.7,1688.4,1777.1,1693.3,1777.3z"></path> <path d="M2323,1564.7c21-14.5,41.8-29.3,63.1-43.4c17.6-11.7,32.1-25.4,38.9-46.3c4.2-12.9,3.2-21.4-6.9-30.4 c-21.4-19-45.7-27.2-73.2-15.9c-42.4,17.4-76.1,44.5-95.5,87.5c-23.8,52.7,1.1,99.8,47,122.9c33.5,16.8,69.4,25.4,106.7,24.9 c48.2-0.6,96.7-1,144.6-5.9c40-4.1,79.5-13.6,118.9-22.3c33.2-7.4,66.6-15.3,98.7-26.4c54.6-18.8,108.5-39.7,162.3-60.5 c101.8-39.3,194.1-96,283.1-158.2c26.7-18.6,50-41.9,74.8-63.2c27.4-23.4,50.4-50.7,71-80.2c0.8-1.1,2.1-2,4.9-4.5 c-0.5,4.2-0.2,6.4-1.1,8.1c-26,47.3-50.1,95.8-78.8,141.5c-35.5,56.6-84.1,102.1-137.9,141.4c-51.8,37.9-103.9,75.6-157.6,110.6 c-44.7,29.1-93.9,49.9-144.5,67.3c-48.4,16.6-96.3,34.6-145.1,49.7c-31.3,9.7-63.8,16.2-96,22.7c-69.9,14.1-140.7,15.7-211.6,14.2 c-5.3-0.1-10.6-1.2-15.9-1.8c0.1-1,0.1-2.1,0.2-3.1c12.7-4.1,25.5-8.1,38.2-12.4c3.7-1.2,7.4-2.8,10.5-4.9 c17.4-12,25.8-30.3,2.1-46.5c-5.6-3.9-12.5-7.5-19.1-8.2c-35-3.7-69.2-0.9-100.1,18.3c-27.3,16.8-32.4,36.4-16.2,63.9 c18.4,31.2,47.2,51.4,77.3,69.6c40.3,24.3,81.8,46.5,126.4,61.8c33.4,11.4,67.2,21.5,100.7,32.3c27.6,8.9,55,18.8,82.8,27 c27.1,8,54.4,15.6,82.1,21.4c34.6,7.2,69.5,13.1,104.5,18c34.7,4.8,69.6,8,104.4,11.3c24.8,2.4,49.7,3.9,74.9,7.3 c-4.6,1.5-9.1,3.8-13.8,4.5c-48.1,6.6-96,15.2-144.4,18.8c-56.2,4.3-112.9,6.7-169.2,5.3c-50.8-1.3-101.8-6.5-152.1-14 c-93.7-13.9-180.7-47-259.5-100.3c-2.3-1.5-4.4-3.2-6.6-4.9c-0.5-0.4-0.6-1.3-1.8-3.7c4.8,0.3,8.8,0.3,12.7,0.8 c4.6,0.6,9.3,2.4,13.8,2c10.4-0.9,21.5-1.7,27.1-12.7c5.2-10.4-3-16.6-8.6-23.4c-24.1-29-55.2-38.8-91.8-33 c-17.8,2.9-30.7,20.9-31.9,43.4c-1.6,29.3,10.9,53.3,26.8,76.6c22.7,33.1,52.9,57.9,86,79.6c36.6,24.1,70.3,53.3,112.3,68.3 c27,9.7,54.4,18,81.6,27.1c2.3,0.8,4.4,2.1,7.3,3.5c-74.2,38.5-300.1-34.3-344.9-111.5c8,0.4,15,1,22,0.9 c12.7-0.1,17.5-5.4,17.1-18.2c-0.8-20.6-13.9-36-35-43.2c-24.4-8.3-47.4-5.9-69.5,6.8c-1.9,1.1-4.1,1.7-6.2,2.6 c-21.2-69.8-73.7-75.5-124.1-28c0.7-8,1.4-14.3,1.9-20.7c1.4-18.9,4.4-38,3.7-56.8c-1.3-36.6-24.3-59.9-52.5-79.5 c-12.1-8.4-24.6-16.5-35.8-26c-11.5-9.8-16.8-23.5-21.9-40.9c25.2,0,48.5,1.1,71.6-0.3c24.3-1.4,42.6,8.7,59.5,24.4 c18.3,17,39.7,30.9,64.1,34.3c48.9,6.8,88-4.5,108.8-61.2c22.5-61.1,12.1-119.5-15.7-175.8c-31.6-64-81-110.7-145-141.7 c-27.6-13.3-56.2-24.4-84.4-36.6c-2-0.9-3.9-2.1-9-4.9c11.4-3.1,19.9-6.6,28.7-7.6c29.3-3.4,58.8-7.6,88.2-8.3 c22.8-0.5,45.6,5.4,68.4,5.6c25.5,0.3,51.8,0.5,76.5-4.9c43.4-9.6,86.3-22.5,128.7-35.9c51.4-16.2,102-34.9,153.3-51.7 c83.7-27.3,161.8-67.4,240-107c88.5-44.9,174.3-94.9,256.1-151.2c48.1-33.1,94.5-68.5,141.5-103.2 c67.2-49.7,126.5-108.3,185.8-166.8c53.9-53.1,104.1-109.6,146.2-172.6c19.6-29.3,36.7-60.4,55-90.6c1.5-2.5,3.6-4.6,8.1-5.7 c-4.2,16.3-7.8,32.7-12.6,48.8c-18,60.8-40.9,120-72,175.2c-25.9,46-54.4,90.8-84,134.6c-60.3,89.4-132.2,169.4-208.4,245.3 c-85.2,84.8-178.8,159.5-278.5,226.9c-52.2,35.3-103.8,71.8-160.6,99.4c-41.5,20.2-84.2,38.1-126.6,56.4 c-29.9,12.9-59.6,26.7-90.6,36.4c-31.3,9.9-63.9,15.7-96.1,22.5c-15.6,3.3-31.5,4.8-47.3,7.1c-3.3,0.5-6.6,0.8-9.9,1.2 C2323.8,1566.9,2323.4,1565.8,2323,1564.7z"></path> <path d="M1462,996.4c5.8-48.7,21.9-91,67.7-117.7c25.6-14.9,52-25.9,81.4-30.1c14.5-2,24.3-12,27.6-26.3c0.6-2.5,1.4-5,3.2-11.3 c8.7,12.8,15.6,23.1,22.8,33.3c11.4,16.4,23.6,32.1,42.8,40.2c4.6,1.9,9.6,3.3,14.5,3.9c4.2,0.5,8.6-0.5,12.9-0.9 c-0.7-4.8,0-10.4-2.3-14.4c-7.6-13.5-16.9-26.1-24.1-39.9c-3.8-7.3-4.5-16.2-6.6-24.4c1.2-0.6,2.3-1.1,3.5-1.7 c3.8,1.7,7.5,4.6,11.3,4.8c6.7,0.4,13.6-0.8,20.4-1.3c-2.6-6-5.1-12-7.9-17.8c-0.8-1.6-2.7-2.6-4.7-4.6 c25.9-19.8,18.5-48.9,20-74.5c3.6-64.9,4.8-129.9,7.3-194.9c0.4-11.2-2-20.6-10.1-28.6c-5.5-5.5-8.2-12-4.5-20.1 c10.6-22.8,20.8-45.9,31.3-68.7c3.9-8.4,8.2-16.5,13.2-26.5c14.1,13.8,22.4,29.2,29.1,45.6c7,16.7,13.3,33.7,20.4,50.4 c3.3,7.8,1.6,13.8-4.8,18.5c-8.8,6.4-11.6,14.7-11,25.3c3.2,61.8,6,123.6,9,185.5c0.5,10.9,1.4,21.8,1.1,32.7 c-0.5,20.4,4.5,39.1,15.4,56.8c-2.4,2.8-5.4,5.1-6.6,8.1c-1.7,4.3-4.3,10.7-2.5,13.4c1.9,2.8,9,3.8,13.3,3c6.2-1.2,12-4.7,18.7-7.6 c3,12,0,21.7-5.6,30.8c-7.9,12.9-16.2,25.6-23.7,38.7c-5.1,9-2.9,12.2,7.7,13.1c17.4,1.4,29.8-8.3,40.1-20.1 c13.3-15.2,24.9-31.9,37.2-47.9c1.4-1.8,2.8-3.5,4-5.2c1.3,0.4,2.6,0.5,2.6,0.9c6.4,27.3,28.6,30.7,51.2,36.3 c55,13.6,100.1,40.9,119.5,98.1c5,14.8,6.9,30.7,10.9,49.2c-6.7-2.3-10.6-3.3-14.1-5c-25.8-12.1-51.6-24.9-81.1-21.9 c-16,1.7-32.1,5.8-47.1,11.4c-10.6,4-17.4,3.1-24.8-4.9c-13.2-14.4-26.7-28.5-46.7-33.3c-6.8-1.6-13.6-3.9-20.5-3.9 c-2.9,0-8.1,4.6-8.5,7.6c-3.8,25.9-10.7,50.1-31.5,68.2c-5.9,5.1-5.4,10.6,1.1,15.5c11.1,8.4,15.1,20.5,15.4,33.8 c0.4,18.7,0.3,37.4-0.3,56.1c-0.5,17.1,6.6,30.3,20.1,39.8c11.3,7.9,15.8,17.6,15.7,31.5c-0.5,72.1-0.2,144.2-0.3,216.3 c0,3.2-0.7,6.4-1.1,9.6c-1.2,0.4-2.5,0.7-3.7,1.1c-31.2-57.3-62.3-114.5-93.5-171.8c-1.4-0.3-2.7-0.7-4.1-1 c-31.5,57.7-63,115.4-94.6,173c-1.4-0.3-2.8-0.6-4.2-0.9c-0.7-5.9-2.1-11.8-2.1-17.6c0.4-70.1,1-140.3,1.4-210.4 c0.1-10.5,3.9-18.9,12-25.4c18.6-15,27.7-33.5,24.8-58.2c-1.8-15.3-0.3-31.1-0.2-46.6c0-13.9,4.8-25,18-31.5 c2.3-1.1,3.9-3.4,6.6-5.8c-4.4-4.1-8.1-7.9-12.2-11.3c-18.4-15-24.5-35.7-25.7-58c-0.6-10.5-4.1-13-13.9-13.2 c-18.9-0.2-34,6.2-46.4,20.4c-4.5,5.2-10.2,9.5-15.4,14.2c-8.9,8.1-18.5,9.9-29.9,4.8c-39.3-17.7-77.3-11-114.6,7.2 c-7.1,3.5-14.3,6.5-21.5,9.7C1463.7,998.8,1462.9,997.6,1462,996.4z"></path> <path d="M1782.4,2427c-2.6-11.4-5.5-22.7-7.8-34.1c-6.8-33.5-19.6-64.6-38.7-93c-7.7-11.5-11-22.3-7.3-37c7.5-29.3,7.6-59-6.1-89 c-14.3,8.5-23.8,20.6-32.8,32.9c-9.1,12.4-16.8,25.8-27.1,42c-5.9-22.4-10.2-41.1-8.2-61.2c2.7-28,15.9-51.8,29.4-75.4 c15.8-27.5,25.2-56.7,25.6-88.5c0.2-16-5.8-18.6-20.6-11.4c-17.1,8.3-27,22.9-36.2,38.5c-1.9,3.2-3.7,6.4-8,8.9 c1.4-12.7,2.3-25.5,4.3-38.2c4.3-27.9,2.8-55.1-8.8-81.1c-2.6-5.9-2.6-9.5,3.7-12c63.7-26,108.2-71.7,136.7-133.7 c0.4-1,1.6-1.6,3.7-3.5c2.3,3.8,4.7,7.1,6.5,10.7c27.6,55.5,67.8,98.2,125.4,122.9c9,3.9,11.5,8,9.4,18.4 c-6.4,30.4-12,61.2-3.9,92.5c1.9,7.3,1.5,15.1-0.1,23.8c-10.4-12.2-20.3-25-31.3-36.5c-5.7-5.9-13.1-10.4-20.4-14.5 c-7.6-4.2-10.1-0.1-10.4,7.6c-1.6,33.6,7.2,64.2,23.5,93.5c10.7,19.2,20.5,39.3,26.7,60.3c7.8,26.4,5.4,53.6-2.9,82.3 c-2.7-3.4-4.3-5.2-5.7-7.1c-15-21.2-29.1-43-45.2-63.4c-7.6-9.7-12.2-6.9-15.8,5c-8.3,27.5-6.1,54.6,1,81.7 c2.7,10.4,0.2,19.2-5.6,27.4c-21.6,30.2-34.4,64.1-43.2,99.8c-2.5,10.3-4.2,20.9-6.2,31.4C1784.8,2426.9,1783.6,2427,1782.4,2427z"></path> <path d="M1780.2,3148c-10.2-25.3-21.9-50.2-30.5-76c-17-51.1-23.8-104.1-25.7-157.9c-2.2-63.8-5.6-127.5-8.4-191.2 c-2.7-61.8-5.6-123.6-8-185.4c-1.4-35.8-1.8-71.6-3-107.4c-0.6-17.5-2.2-34.9-2.9-52.4c-0.3-6.2,0.6-12.5,2.7-18.9 c48.9,65.3,57,144.9,80.1,219.4c21.5-76.1,31.5-155.2,76.2-222.3c1.1,0.1,2.2,0.2,3.4,0.2c0.5,3.1,1.4,6.1,1.3,9.2 c-2.4,84.8-4.7,169.7-7.3,254.5c-1.5,47.8-2.9,95.7-5,143.5c-2.6,58.7-4.5,117.5-9.5,176c-5.8,68-19.7,134.4-52,195.7 c-2.2,4.2-4.6,8.4-6.9,12.6C1783.2,3147.7,1781.7,3147.8,1780.2,3148z"></path> <path d="M1611.7,2154c-11.5,45.9-18.2,91.7,3.3,137.7c-5,0-8,0.1-11,0c-31.8-1.1-52.9,15.8-62.3,46.3c-9.1,29.4,3.8,52.2,18.4,75.1 c4.8,7.5,10,14.9,15.7,21.8c8.9,10.8,12.1,21.6,5.7,35.2c-14.2,30.2-36,51.2-68.3,60.5c-3.9,1.1-8.2,0.7-15.2,1.3 c5.9-9.8,10.6-17.1,14.7-24.7c5.2-9.5,10.8-19,14.8-29.1c10.2-26-2.9-53.2-22.5-68.2c-12.2-9.4-24.2-6.7-37.2,6.3 c-17.7,17.6-28.3,39.5-31.7,63.7c-4.3,30.3,0,60.4,6.7,90.2c11.6,52.1,33.3,99.9,57.9,148.1c-4.9-3.1-10.3-5.6-14.7-9.2 c-39.8-32.6-67.1-74.3-87-121.2c-22.7-53.3-29.3-109.2-24.5-166.6c0.8-10,4.4-18.6,13.3-24.6c21.5-14.6,41.1-33.7,64.7-43.2 c25.3-10.2,32.2-28.7,38.3-50.5c15.8-56.7,49.7-100.4,96.5-134.8c7-5.2,14.1-10.3,21.2-15.4 C1609.4,2153.1,1610.6,2153.6,1611.7,2154z"></path> <path d="M2069.1,2532.3c-35.9-0.7-76.2-38.7-84.7-68.4c-2.5-8.8-1.8-16.7,5.9-24.4c15.6-15.8,29.6-33.1,35.5-55.3 c8-29.8-4.1-77.9-33.7-89.1c-7.4-2.8-15.9-2.6-23.9-3.5c-4.1-0.4-8.3-0.1-14.2-0.1c19.9-46,14.5-91.6,3.7-137.2c1-0.7,2-1.4,3-2.1 c11.5,8,23.9,15,34.3,24.2c40.7,35.6,70,78.8,84.8,131.3c1.7,5.9,3.1,12,4.7,17.9c2.9,11,9.6,18.3,20.5,21.9 c31.5,10.5,55.7,32.4,79.9,53.5c6.2,5.4,8.8,17.3,9.6,26.4c7.3,92.3-19,174.5-77.5,246c-12,14.7-26.6,27.2-40.2,40.5 c-1.8,1.8-4.5,2.6-8.5,2.6c7.4-15,15-29.9,22.1-45c17.5-37,31.4-75.3,38.5-115.6c6-34.1,11.2-69.3-4.3-102.2 c-7.3-15.4-18.2-29.8-30-42.2c-11.7-12.2-28.6-7.8-39.9,6.7c-23,29.5-20.1,54-2.3,84C2057.8,2511.7,2062.9,2521.2,2069.1,2532.3z"></path> <path d="M1883.8,1538.9c-19.9,0.2-39.7,0.8-59.6,0.6c-40.9-0.3-81.8-0.9-122.7-1.5c-5.3-0.1-10.5-1.3-17.5-2.2 c33.9-62.6,66.9-123.4,101.6-187.4c33.7,65.5,72.4,124.7,98.1,190.7L1883.8,1538.9z"></path> <path d="M1883.7,1539.1c40.8,57.4,67.9,122.3,103.9,185.3c-68.5,0-133.5,0-201,0c11.6-22.1,22.3-43,33.4-63.7 c19.8-37,39.9-73.8,59.8-110.8c1.8-3.4,2.7-7.3,4.1-11C1883.8,1538.9,1883.7,1539.1,1883.7,1539.1z"></path> <path d="M1682.9,1538.1c34.3,62.9,67.4,123.4,101.6,186.1c-67.9,0-133,0-201.3,0C1616.4,1662.2,1649.1,1601.3,1682.9,1538.1z"></path> </g> </svg> 
